<?xml version="1.0" encoding="UTF-8" standalone="no"?>
<svg width="10px" height="13px" viewBox="0 0 10 13" version="1.1" xmlns="http://www.w3.org/2000/svg" xmlns:xlink="http://www.w3.org/1999/xlink">
    <!-- Generator: Sketch 40.3 (33839) - http://www.bohemiancoding.com/sketch -->
    <title>Shape</title>
    <desc>Created with Sketch.</desc>
    <defs></defs>
    <g id="Symbols" stroke="none" stroke-width="1" fill="none" fill-rule="evenodd">
        <g id="button/follow" transform="translate(-11.000000, -9.000000)" fill="#FF4F27">
            <g id="B">
                <path d="M12.7714227,16.2556587 L11,16.2556587 C11.6510448,13.8022297 12.2672847,11.3567011 12.8895033,9.0093952 L14.1046874,9.0093952 C13.6005494,10.9606079 13.1115718,12.9752383 12.6016685,14.9554908 C13.2159866,14.9922175 13.687455,15.0212572 14.3171471,15.0599056 C14.0427645,16.1514573 13.7839693,17.1830079 13.5249607,18.2166937 C14.7653409,16.8913295 16.0016642,15.5700224 17.1530035,14.3375427 C17.0293712,14.3317774 16.633278,14.3123464 16.0672171,14.2873637 C16.4902147,13.5280606 16.8651687,12.852033 17.2456744,12.1796355 C17.6398459,11.4860987 18.707269,9.71873299 19.0454963,9 L20.4287263,9 C19.8801746,9.97176288 18.7119666,12.0540814 18.1190012,13.1012194 L20.1513543,13.1012194 C17.1589823,16.1049084 14.1414141,19.1320853 11.2511081,22.032 C11.7050672,20.3088344 12.2247928,18.3343472 12.7714227,16.2556587 Z" id="Shape"></path>
            </g>
        </g>
    </g>
</svg>