<?xml version="1.0" encoding="UTF-8" standalone="no"?>
<svg width="17px" height="15px" viewBox="0 0 17 15" version="1.1" xmlns="http://www.w3.org/2000/svg" xmlns:xlink="http://www.w3.org/1999/xlink">
    <!-- Generator: Sketch 40.3 (33839) - http://www.bohemiancoding.com/sketch -->
    <title>Shape</title>
    <desc>Created with Sketch.</desc>
    <defs></defs>
    <g id="First-Pass" stroke="none" stroke-width="1" fill="none" fill-rule="evenodd" opacity="0.601247668">
        <g id="Screen-Copy-6" transform="translate(-18.000000, -410.000000)" stroke="#4B4A4B">
            <path d="M32.2550687,414.631036 C32.2550687,414.490111 32.2550687,414.34982 32.2455467,414.210164 C32.8827788,413.749243 33.4328483,413.178537 33.8699999,412.52477 C33.2757503,412.788086 32.6453623,412.960769 31.9998791,413.037054 C32.6795874,412.630135 33.1883031,411.990124 33.4313531,411.236126 C32.7922095,411.615391 32.09297,411.882677 31.3638095,412.026452 C30.3545301,410.953255 28.7507946,410.690587 27.4518858,411.385736 C26.1529771,412.080884 25.4819273,413.56097 25.8150227,414.996046 C23.1970414,414.864801 20.7578732,413.628258 19.104552,411.594153 C18.2403497,413.081899 18.6817675,414.985166 20.1126144,415.940629 C19.5944533,415.925271 19.0875897,415.785492 18.6348,415.533087 L18.6348,415.574349 C18.6352241,417.124272 19.7277678,418.45922 21.247002,418.766123 C20.7676452,418.896854 20.2647001,418.915964 19.7768052,418.821986 C20.2033577,420.148351 21.4257455,421.056979 22.8187668,421.083143 C21.6658018,421.989277 20.2415166,422.481181 18.7750908,422.479703 C18.5160312,422.479206 18.2572235,422.463521 18,422.432728 C19.4890097,423.388278 21.221555,423.895128 22.9907976,423.892768 C28.9795007,423.895307 32.2550687,418.933711 32.2550687,414.631036 Z" id="Shape"></path>
        </g>
    </g>
</svg>